<svg xmlns="http://www.w3.org/2000/svg" width="24" height="24" viewBox="40 282 32 32">
    <g>
        <path
            d="M46.176 282h19.649A6.176 6.176 0 0 1 72 288.176v19.648A6.176 6.176 0 0 1 65.825 314h-19.65A6.176 6.176 0 0 1 40 307.824v-19.648A6.176 6.176 0 0 1 46.176 282"
            fill="#d71921" fill-rule="evenodd"/>
        <path
            d="M56 283.367c8.082 0 14.633 6.55 14.635 14.632A14.636 14.636 0 0 1 56 312.635a14.633 14.633 0 0 1-14.632-14.636A14.632 14.632 0 0 1 56 283.367Zm-8.525 14.632a14.31 14.31 0 0 0 5.208-3.316A14.28 14.28 0 0 0 56 289.475a14.339 14.339 0 0 0 3.316 5.208 14.345 14.345 0 0 0 5.208 3.316 14.347 14.347 0 0 0-5.208 3.319A14.335 14.335 0 0 0 56 306.525a14.29 14.29 0 0 0-3.317-5.208 14.351 14.351 0 0 0-5.208-3.318Zm3.682 4.46A12.858 12.858 0 0 0 43.294 299c.497 6.24 5.464 11.209 11.704 11.704a14.511 14.511 0 0 0-.015-.165c-.317-3.245-1.699-6.045-3.826-8.08ZM68.705 299c-.494 6.24-5.464 11.207-11.702 11.704a12.836 12.836 0 0 1 3.504-7.908c2.033-2.103 4.818-3.467 8.044-3.781a14.536 14.536 0 0 1 .154-.015Zm-13.707-13.703a12.763 12.763 0 0 0-11.704 11.702c6.434-.558 11.15-5.273 11.704-11.702Zm13.707 11.702c-6.432-.559-11.147-5.273-11.702-11.702 6.238.496 11.208 5.462 11.702 11.702ZM56 283.367v.05-.05Z"
            fill="#fff" fill-rule="evenodd" />
    </g>
</svg>