<svg id="Camera_24dp" xmlns="http://www.w3.org/2000/svg" width="48" height="48" viewBox="0 0 48 48">
  <path id="Path_3517" data-name="Path 3517" d="M0,0H48V48H0Z" fill="#d2ae7e" opacity="0"/>
  <path id="Path_3518" data-name="Path 3518" d="M36,8H27.9L24.24,4H15.76L12.1,8H4V32H36ZM20,30A10,10,0,1,1,30,20,10,10,0,0,1,20,30Z" transform="translate(4 4)" fill="#d2ae7e" opacity="0.3" style="isolation: isolate"/>
  <path id="Path_3519" data-name="Path 3519" d="M6,38H38a4.012,4.012,0,0,0,4-4V10a4.012,4.012,0,0,0-4-4H31.66L28,2H16L12.34,6H6a4.012,4.012,0,0,0-4,4V34A4.012,4.012,0,0,0,6,38ZM6,10h8.1l3.66-4h8.48l3.66,4H38V34H6Zm16,2A10,10,0,1,0,32,22,10,10,0,0,0,22,12Zm0,16a6,6,0,1,1,6-6A6.018,6.018,0,0,1,22,28Z" transform="translate(2 2)" fill="#d2ae7e"/>
</svg>
